<?xml version="1.0" standalone="no"?>
<!DOCTYPE svg PUBLIC "-//W3C//DTD SVG 20010904//EN"
 "http://www.w3.org/TR/2001/REC-SVG-20010904/DTD/svg10.dtd">
<svg version="1.0" xmlns="http://www.w3.org/2000/svg"
 width="990.000000pt" height="990.000000pt" viewBox="0 0 990.000000 990.000000"
 preserveAspectRatio="xMidYMid meet">
<metadata>
Created by potrace 1.11, written by Peter Selinger 2001-2013
</metadata>
<g transform="translate(0.000000,990.000000) scale(0.100000,-0.100000)"
fill="#000000" stroke="none">
<path d="M1553 9819 c-722 -55 -1309 -585 -1456 -1313 l-22 -111 -3 -3350 c-2
-2293 1 -3387 8 -3468 37 -413 199 -752 496 -1037 221 -212 511 -359 819 -416
96 -18 226 -19 3555 -19 3324 0 3459 1 3555 19 512 95 944 423 1164 886 88
185 131 344 151 550 8 81 10 1105 7 3480 -3 3710 2 3396 -62 3624 -182 643
-757 1107 -1435 1156 -153 11 -6631 11 -6777 -1z m1627 -1693 c160 -29 276
-88 398 -201 125 -116 203 -255 237 -421 14 -71 15 -332 13 -2594 l-3 -2515
-33 -95 c-116 -333 -402 -540 -747 -540 -345 0 -630 205 -749 538 l-31 87 -3
2525 c-3 2852 -10 2606 78 2785 157 320 495 493 840 431z m4155 -5 c144 -35
246 -92 359 -200 233 -223 308 -573 184 -864 -61 -143 -52 -134 -1052 -1134
l-961 -963 951 -952 c523 -524 965 -973 981 -998 46 -69 89 -158 115 -240 20
-64 23 -96 23 -215 0 -119 -4 -151 -24 -215 -60 -193 -160 -331 -321 -440
-258 -175 -612 -174 -877 3 -103 70 -2576 2549 -2627 2634 -83 139 -118 266
-118 423 1 166 40 299 127 430 31 45 437 457 1322 1341 l1278 1277 96 47 c53
26 130 56 170 65 103 26 270 26 374 1z"/>
</g>
</svg>
